<svg xmlns="http://www.w3.org/2000/svg" viewBox="0 0 20.4 20.4">
  <g fill="#030104">
    <path d="M19 18.3l-3.8-4.2-.9-1-.3-.3a7 7 0 0 1-1-3.7l.2-1.7c0-.3 0-.6-.2-1l-.7.3c.3 1.7-.1 3.3-1.3 4.3-2 1.6-5.4.8-7.6-1.8s-2.2-6-.1-7.7c1.5-1.3 4-1 6 .3l.1-.2.3-.3L8.2.5S7 0 6 0C4.7 0 3.7.4 3 1 .4 3 .5 7 2.8 9.9a7.4 7.4 0 0 0 5 2.7s2.4.2 4.4 2l.1.2 4.7 5.3a1.2 1.2 0 1 0 1.9-1.7zM12.6 13c-.3.2-.4.5-.5.8a8 8 0 0 0-2.5-1.4 4.6 4.6 0 0 0 3-2.3c.1 1 .4 2 .8 2.6-.3 0-.6 0-.8.3z"/>
    <path d="M8.9 3.7a3 3 0 0 1 1.7 1c.5.4.8 1 1 1.6a2.4 2.4 0 0 0 2-2.1 3 3 0 0 1-1.6-.9 3 3 0 0 1-1-1.7 2.4 2.4 0 0 0-2 2.1z"/>
    <path d="M13.7 3.9a2.4 2.4 0 0 0-2.3-2.3c0 .5.3 1 .8 1.5.4.4 1 .7 1.5.8zM8.9 4a2.4 2.4 0 0 0 2.3 2.4c0-.6-.3-1.1-.8-1.6-.4-.4-1-.7-1.5-.8z"/>
  </g>
</svg>
