<svg xmlns="http://www.w3.org/2000/svg" viewBox="0 0 64 64">
  <path d="M55 0H9a1 1 0 0 0-1 1v62c0 .6.4 1 1 1h46c.6 0 1-.4 1-1V1c0-.6-.4-1-1-1zM34.5 10c0 1.2-1.1 2.3-2.5 2.3s-2.5-1.1-2.5-2.4l.1-.7h4.8l.1.7zm-9-3V2h13v5h-13zm-2-5v6c0 .6.4 1 1 1h3.1l-.1 1c0 2.3 2 4.3 4.5 4.3s4.5-2 4.5-4.4l-.1-.9h3.2c.5 0 1-.4 1-1V2H54v28.2H42a10 10 0 0 0-20 0H10V2h13.4zm.6 28.2a8 8 0 0 1 15.8 0H24.1zm15.8 2a8 8 0 0 1-15.8 0h15.8zM29.5 53.8c0-1.3 1.1-2.3 2.5-2.3s2.5 1 2.5 2.3l-.1.7h-4.8l-.1-.7zm9 3v5h-13v-5h13zm2 5.2v-6.3c0-.5-.4-1-1-1h-3.1l.1-.9c0-2.4-2-4.3-4.5-4.3s-4.5 2-4.5 4.3l.1 1h-3.2a1 1 0 0 0-1 1V62H10V32.2h12a10 10 0 0 0 20 0h12V62H40.6z"/>
</svg>
