<svg xmlns="http://www.w3.org/2000/svg" viewBox="0 0 204.8 204.8">
  <path d="M174.8 30c-19.3-19.3-45-30-72.4-30A102 102 0 0 0 30 30C10.7 49.3 0 75 0 102.4a102 102 0 0 0 30 72.4c19.3 19.3 45 30 72.4 30 27.4 0 53-10.7 72.4-30s30-45 30-72.4a102 102 0 0 0-30-72.4zM170 170a95 95 0 0 1-67.6 28 95.2 95.2 0 0 1-95.6-95.6 95.2 95.2 0 0 1 95.6-95.6 95.2 95.2 0 0 1 95.6 95.6c0 25.6-10 49.5-28 67.6z"/>
  <path d="M102.4 0A3.4 3.4 0 0 0 99 3.4 95 95 0 0 1 71 71 95 95 0 0 1 3.4 99a3.4 3.4 0 1 0 0 6.8c27.4 0 53.1-10.6 72.4-30 19.4-19.3 30-45 30-72.4 0-1.8-1.5-3.4-3.4-3.4zm97.8 97.7A102.1 102.1 0 0 0 97.7 200.2a3.4 3.4 0 1 0 6.9 0 95 95 0 0 1 28-67.6c18-18 42-28 67.6-28a3.4 3.4 0 0 0 0-6.9zM174.8 30a3.4 3.4 0 0 0-4.8 0L30 170a3.4 3.4 0 1 0 4.8 4.8l140-140a3.4 3.4 0 0 0 0-4.8z"/>
  <path d="M177.2 167.6l-140-140a3.4 3.4 0 1 0-4.8 4.8l140 140a3.4 3.4 0 0 0 4.8 0 3.4 3.4 0 0 0 0-4.8z"/>
</svg>
