<svg xmlns="http://www.w3.org/2000/svg" viewBox="0 0 64 64">
  <path d="M32 0a32 32 0 1 0 0 64 32 32 0 0 0 0-64zm29.6 36.7l-3.9-6.4 2.7-7.9a29.9 29.9 0 0 1 1.2 14.3zm-7.5 15.6a1 1 0 0 0-.4 0L44 53.8l-.1-.3-5.5-9.2 8.9-13.7h8.4v.3l5.3 8.7a30 30 0 0 1-7 12.7zM44 55.9l7.7-1.3A30 30 0 0 1 40 61l4-5zM12.6 9a29 29 0 0 1 18.7-7l.2.3L37 7.6l-2 8.2-14.3 5.4-.1-.1-8.9-4.7 1-7.3zm25.8-3l-4.3-4a29 29 0 0 1 11 3l-6.7 1zM21.9 38.7l-.8-15.5 14.6-5.6 9.8 12.1-8.5 13-15-4zm37.4-19.1v.2l-3.1 8.8h-9L36.8 16l2-7.9 8.4-1.3.4-.2c5 3 9.1 7.7 11.6 13.1zm-49-8.3L9.5 17l-5.3 4a30 30 0 0 1 6.1-9.6zM3.1 24.1l7.8-5.8 8.2 4.3.9 17-7.7 7.7-.2.2-7.4-3.2A29.8 29.8 0 0 1 3 24.1zm3 23l5.4 2.3 4.1 7.7c-3.9-2.5-7.2-6-9.5-10zM18.8 59v-.2l-5.3-10 .2-.1 8-8 14.5 4 6 9.8.1.2-5.4 6.9a30.1 30.1 0 0 1-18-2.6z"/>
</svg>
