<svg xmlns="http://www.w3.org/2000/svg" viewBox="0 0 512 512">
  <path d="M503 3.4a7.5 7.5 0 0 0-6.3-3.4h-44.3c-3 0-5.7 1.8-7 4.5L419 66l-1.7-.2c-3-.2-5.8 1.3-7.2 3.8l-16.5 29v.2l-33.9 59.7c-17.2-6.6-68.5-25.6-124-40.7a7.5 7.5 0 1 0-4 14.4c67 18.4 128 42.3 128.6 42.6 3.5 1.3 7.4 0 9.3-3.3l34.7-61.3 49.9 4.3-40.5 100.8a188 188 0 0 1-158.5 118 1300 1300 0 0 1-38.4 2.7 111 111 0 0 0 15.4-64.2l27.3 6.9A7.5 7.5 0 1 0 263 264l-33-8.3a115 115 0 0 0-8.4-25l77.7 20.7a7.5 7.5 0 1 0 3.9-14.5l-92.6-24.6a113.2 113.2 0 0 0-36.5-32l158.9 40a7.5 7.5 0 1 0 3.6-14.6l-235.3-59a7.5 7.5 0 0 0-3.6 14.5l21.2 5.3c-24.7.3-47.5 8.5-66 22.4-3.6-25.3-4-64 24.4-73.5 23.4-7.8 66.6-4.6 124.9 9.2a7.5 7.5 0 0 0 3.5-14.5c-62-14.8-106.7-17.8-133.1-9-31.1 10.4-43 46.5-32.9 99.4a112 112 0 0 0-7.4 148.3 113 113 0 0 0 51.6 36.4c.6.7 1.2 1.4 2 2 .3 0 14.7 10 22.3 40.2a392 392 0 0 0-65.8 13c-14 4.3-32.7 11.7-32.7 25.5 0 9.5 7.6 23.6 73.2 34.7A1026 1026 0 0 0 245.5 512c61.4 0 119.2-4 162.7-11.4 65.6-11.1 73.2-25.2 73.2-34.8 0-9.5-7.5-23.4-72.3-34.5a7.5 7.5 0 1 0-2.6 14.8c51.5 8.8 59 18.4 59.8 19.8-.8 1.4-8.8 11.5-64.4 20.5-42.3 6.8-97.8 10.6-156.3 10.6-58.6 0-114.1-3.8-156.4-10.6-56-9-63.7-19.3-64.4-20.6 1.6-3.8 20.5-15.4 86.2-23.6 1 7.5 1.6 16 1.6 25.5a7.5 7.5 0 0 0 15 0c0-9.9.7-19 2-27.6 35-3.5 74.9-5.4 116-5.4a1154.5 1154.5 0 0 1 125.2 6.3 7.5 7.5 0 0 0 .8-15c-37.5-4-81.1-6.3-126-6.3a1208 1208 0 0 0-112.9 5c1.3-4.8 2.9-9.3 4.7-13.5 7.5-17.8 16.9-24 16.9-24 .8-.6 1.5-1.3 2-2a112.9 112.9 0 0 0 49.4-33.6c15.3-.6 32.4-1.8 50.8-3.4a203.3 203.3 0 0 0 171.2-127.3l55.8-139.3a7.5 7.5 0 0 0-6.3-10.2l26.4-61c1-2.2.8-4.9-.6-7zm-379.5 402l-3.4 9.2a98.2 98.2 0 0 0-12.8-26.3h25.6a93 93 0 0 0-9.4 17zm73.5-66.7c-.5.5-1 1-1.4 1.7a97 97 0 0 1-51.8 32.9H96.4A97.5 97.5 0 1 1 216.2 263a97.6 97.6 0 0 1-19.2 75.6zM460 100l-47.6-4 8.3-14.7 2.2.2h.2l42.2 4h.6L460 99.9zm1.4-30l-26.6-2.4L457.3 15h28l-23.9 55z"/>
  <path d="M56 223.2a19 19 0 0 0-18.9 19 7.5 7.5 0 0 0 15 0 4 4 0 0 1 8 0 7.5 7.5 0 0 0 15 0 19 19 0 0 0-19-19zm63.5 0a19 19 0 0 0-19 19 7.5 7.5 0 0 0 15 0 4 4 0 0 1 8 0 7.5 7.5 0 0 0 15 0 19 19 0 0 0-19-19zm63.3 0a19 19 0 0 0-19 19 7.5 7.5 0 0 0 15 0 4 4 0 0 1 8 0 7.5 7.5 0 0 0 15 0 19 19 0 0 0-19-19zM56 293a19 19 0 0 0-18.9 19 7.5 7.5 0 0 0 15 0 4 4 0 0 1 8 0 7.5 7.5 0 0 0 15 0 19 19 0 0 0-19-19zm63.5 0a19 19 0 0 0-19 19 7.5 7.5 0 0 0 15 0 4 4 0 0 1 8 0 7.5 7.5 0 0 0 15 0 19 19 0 0 0-19-19zm63.3 0a19 19 0 0 0-19 19 7.5 7.5 0 0 0 15 0 4 4 0 0 1 8 0 7.5 7.5 0 0 0 15 0 19 19 0 0 0-19-19zm-89.4 32.6a19 19 0 0 0-19 19 7.5 7.5 0 0 0 15 0 4 4 0 0 1 8 0 7.5 7.5 0 0 0 15 0 19 19 0 0 0-19-19zm63.4 0a19 19 0 0 0-19 19 7.5 7.5 0 0 0 15 0 4 4 0 0 1 8 0 7.5 7.5 0 0 0 15 0 19 19 0 0 0-19-19zm-63.4-67.4a19 19 0 0 0-19 19 7.5 7.5 0 0 0 15 0 4 4 0 0 1 8 0 7.5 7.5 0 0 0 15 0 19 19 0 0 0-19-19zm63.4 0a19 19 0 0 0-19 19 7.5 7.5 0 0 0 15 0 4 4 0 0 1 8 0 7.5 7.5 0 0 0 15 0 19 19 0 0 0-19-19z"/>
</svg>
