<svg xmlns="http://www.w3.org/2000/svg" viewBox="0 0 480 480">
  <path d="M472 144h-24v-12a28 28 0 0 0-40-25.2V96a32 32 0 0 0-64 0v48h-32v-8a23.9 23.9 0 0 0-40-17.8c-9-8.3-23-8.3-32 0-9-8.3-23-8.3-32 0a23.9 23.9 0 0 0-40 17.8v8h-32V96a32 32 0 0 0-64 0v10.8A28 28 0 0 0 32 132v12H8a8 8 0 0 0-8 8v48a8 8 0 0 0 8 8h24v12a28 28 0 0 0 40 25.2V256a32 32 0 0 0 64 0v-48h16v26.7c0 10.7 4.2 20.8 11.7 28.3l20.3 20.3V416h16V280a8 8 0 0 0-2.3-5.7L175 251.7a24 24 0 0 1-7-17V184h46.9c3 0 5.9 1.4 7.7 3.8l.2.2a7.3 7.3 0 0 1 1 3.3 6.8 6.8 0 0 1 0 2.3c-.2.8-.5 1.6-1 2.4-1.3 2.5-4 4-6.8 4h-24a8 8 0 0 0-8 8v16a8 8 0 0 0 5.5 7.6l17.6 5.9c14.3 4.7 24.9 26.3 24.9 42.5h16c0-22-13.7-50.3-35.8-57.7l-12.2-4V216h16c6.7 0 13.1-3 17.6-8H304v29.3a24 24 0 0 1-4.8 14.4l-17.6 23.5a8 8 0 0 0-1.6 4.8v136h16V282.7l16-21.4c5.2-6.9 8-15.3 8-24V208h24v48a32 32 0 0 0 64 0v-10.8a28 28 0 0 0 40-25.2v-12h24a8 8 0 0 0 8-8v-48a8 8 0 0 0-8-8zM32 192H16v-32h16v32zm40 28a12 12 0 0 1-24 0v-88a12 12 0 0 1 24 0v88zm48 36a16 16 0 1 1-32 0V96a16 16 0 1 1 32 0v160zm40-88a8 8 0 0 0-8 8v16h-16v-32h32c0 1.5.2 3 .5 4.5 0 .5.2 1 .3 1.4l.6 2.1H160zm40-8a8 8 0 0 1-16 0v-24a8 8 0 0 1 16 0v24zm32 0a8 8 0 0 1-16 0v-24a8 8 0 0 1 16 0v24zm48-24a8 8 0 0 1 16 0v24a8 8 0 0 1-16 0v-24zm-32 0a8 8 0 0 1 16 0v24a8 8 0 0 1-16 0v-24zm96 56H240v-.2a26 26 0 0 0-.5-4.8l-.2-.6-.5-1.7-1.3-3-.6-1.5.3-.2 1-.8c.6-.4 1.3-.8 1.8-1.3l1.5 1 1.5 1.2 2.4 1.3 1.6.8 2.8.9 1.5.4c3.1.6 6.3.6 9.4 0l1.5-.4 2.8-1c.6-.1 1.1-.5 1.6-.7l2.4-1.3 1.5-1.1 1.5-1.1c.4.4 1 .7 1.5 1l1.5 1.2 2.3 1.3 1.6.8 2.9.9 1.5.4A24 24 0 0 0 312 160h32v32zm48 64a16 16 0 1 1-32 0V96a16 16 0 1 1 32 0v160zm40-36a12 12 0 0 1-24 0v-88a12 12 0 0 1 24 0v88zm32-28h-16v-32h16v32z"/>
</svg>
