<svg xmlns="http://www.w3.org/2000/svg" viewBox="0 0 64 64">
  <path d="M62.5 7L57 1.4a5.2 5.2 0 0 0-7.7.3 2348 2348 0 0 0-32.3 40l-11 11-1.3-1.2a1 1 0 0 0-1.5 0l-3 3a1 1 0 0 0 0 1.3l8 7.9a1 1 0 0 0 1.4 0l3-3a1 1 0 0 0 0-1.4l-1.3-1.2 11-11C23.6 46 52.4 23 62.2 14.4a5.2 5.2 0 0 0 .3-7.6zM9 58.7l1.3 1.2L9 61.6 2.4 55 4 53.6l1.2 1.2c.4.4 1 .4 1.4 0l10.2-10.1.2.3 2.3 2.2L9 57.4a1 1 0 0 0 0 1.4zM61 13a2380.2 2380.2 0 0 1-40 32.6l-.2.2-2.3-2.2a1 1 0 0 0-.3-.2l.3-.4h.1c.1-.3 23.8-30 32.4-40a3.2 3.2 0 0 1 4.7-.2L61 8.3a3.2 3.2 0 0 1-.2 4.7zm-48.4 7.4a10 10 0 1 0 0-20.2 10 10 0 0 0 0 20.2zm8-10a8 8 0 0 1-1.9 5.1c-2.2-3.3-2.2-6.7 0-10.4a8 8 0 0 1 2 5.2zm-3.3-6.6c-3 4.5-3 9 0 13A8 8 0 0 1 8 17c3-4.2 3-8.7 0-13.3a8 8 0 0 1 9.2 0zM6.6 5c2.3 3.8 2.3 7.3 0 10.6A8 8 0 0 1 6.6 5z"/>
</svg>
