<svg xmlns="http://www.w3.org/2000/svg" viewBox="0 0 58.7 58.7">
  <path d="M58.2 43.3a3.5 3.5 0 0 0-3.2-2H39c-1.9 0-3.2-.5-4.5-1.8L55.5 7a3 3 0 0 0-.4-3.8 3 3 0 0 0-4.5.4l-5.2 7.1-6.2 8.4-9.9 13.6L19 18.6l-4.5-6.2L8 3.6a3 3 0 0 0-4.5-.4A3 3 0 0 0 3.2 7l21 32.5a5.7 5.7 0 0 1-4.3 1.8H3.7C2 41.3 1 42 .4 43.1a4 4 0 0 0 0 3.7l1.8 3.6c.7 1.3 1.6 2 2.7 2h1.9a5 5 0 0 0 4.9 4h10a5 5 0 0 0 4.8-6.4 12 12 0 0 0 2.8-2.8c2.1 3.2 5.7 5.1 9.6 5.1h14.5c1.2 0 2.5-.8 3-2l1.9-3.5c.5-1.1.5-2.4 0-3.5zm-6-38.6a1 1 0 0 1 1.5 0c.4.2.4.8.1 1.2l-4.2 6.5-2-1.3 4.6-6.4zm-5.7 8l2 1.4-4.5 7-2.5-1.6 5-6.8zM40.3 21l2.6 1.6L33 37.8l-2.5-3.4 9.7-13.3zM4.8 5.9c-.2-.4-.2-1 .1-1.3.2-.2.5-.3.8-.3.3 0 .6.2.7.5l4.2 5.6L8.7 12 4.8 6zm7 10.8l-2-3.1 2-1.5 4.3 6 .7.9-2.4 1.6-2.6-4zm3 26.6l.7 3h-3.8l-.8.1h-.3l-.7-3h5zM8 48a5 5 0 0 0-.3.5l-.2.2-.3.6-.2.2-.2.9h-2s-.4 0-.8-.8L2.3 46a2 2 0 0 1-.1-1.9c.2-.3.5-.7 1.5-.7h4.2l.8 4a5.2 5.2 0 0 0-.7.6zm13.7 6.4h-10a3 3 0 1 1-1.4-5.7 3 3 0 0 1 1.4-.3h10a3 3 0 0 1 2 .8l.7 1 .3 1.2a3 3 0 0 1-3 3zm6.2-8.6c-.6 1-1.4 1.8-2.3 2.5l-.2-.1a5 5 0 0 0-.7-.7l-.4-.3a5 5 0 0 0-1.6-.6h-.1l-1-.2h-4l-.7-3h3c2.2 0 4-.6 5.5-2.1l2.7 4.2-.2.3zm13 4.6h-2a9.4 9.4 0 0 1-8-4.3l-.7-1.2-3.8-5.8-11-16.7 2.6-1.7L28.5 35l3.3 4.5c2 2.7 4 3.8 7 3.8h3.6l-1.5 7zm7 0h-5l1.6-7h5l-1.6 7zm8.6-4.4l-1.8 3.6c-.3.4-.9.8-1.3.8H50l1.6-7h3.8c.7.1 1 .6 1.1.9.3.5.3 1.2 0 1.7z"/>
</svg>
