<svg xmlns="http://www.w3.org/2000/svg" viewBox="0 0 512 512">
  <path d="M380.9 317.8h-25.4c-5.8 0-10.5 4.7-10.5 10.5v67.8c0 5.8 4.7 10.5 10.5 10.5h25.4c5.8 0 10.5-4.7 10.5-10.5v-67.8c0-5.8-4.7-10.5-10.5-10.5zm-4.5 73.8H360v-58.8h16.4v58.8zm72-73.8H423c-5.8 0-10.5 4.7-10.5 10.5v67.8c0 5.8 4.7 10.5 10.5 10.5h25.4c5.8 0 10.5-4.7 10.5-10.5v-67.8c0-5.8-4.8-10.5-10.5-10.5zm-4.5 73.8h-16.4v-58.8h16.4v58.8z"/>
  <path d="M103 155.4c-14-4.4-15.7-6.1-20.1-20.1a10.7 10.7 0 0 0-10.3-7.6c-4.7 0-8.9 3-10.3 7.6-4.4 14-6 15.7-20.1 20.1a10.7 10.7 0 0 0-7.6 10.3c0 4.7 3 8.9 7.6 10.3 14 4.4 15.7 6.1 20.1 20.1 1.4 4.5 5.5 7.6 10.3 7.6 4.7 0 8.9-3 10.3-7.6 4.4-14 6.1-15.7 20.1-20.1a10.7 10.7 0 0 0 0-20.6zm-30.3 25.3a28.6 28.6 0 0 0-15-15 28.6 28.6 0 0 0 15-15 28.6 28.6 0 0 0 15 15 28.6 28.6 0 0 0-15 15zm220.9 227.6c-11.2-3.5-12.2-4.5-15.7-15.7a10 10 0 0 0-9.7-7.2 10 10 0 0 0-9.7 7.2c-3.5 11.2-4.5 12.2-15.7 15.7a10 10 0 0 0-7.2 9.7 10 10 0 0 0 7.2 9.7c11.2 3.5 12.2 4.5 15.7 15.7a10 10 0 0 0 9.7 7.2 10 10 0 0 0 9.7-7.2c3.5-11.2 4.5-12.2 15.7-15.7a10 10 0 0 0 7.2-9.7c-.1-4.5-2.9-8.4-7.2-9.7zm-25.5 19.3a23.4 23.4 0 0 0-9.6-9.6c4.3-2.4 7.2-5.3 9.6-9.6 2.4 4.3 5.3 7.2 9.6 9.6a24 24 0 0 0-9.6 9.6zm227-246c-11.2-3.5-12.2-4.5-15.7-15.7a10 10 0 0 0-9.7-7.2 10 10 0 0 0-9.7 7.2c-3.5 11.2-4.5 12.2-15.7 15.7a10 10 0 0 0-7.2 9.7 10 10 0 0 0 7.2 9.7c11.2 3.5 12.2 4.5 15.7 15.7a10 10 0 0 0 9.7 7.2 10 10 0 0 0 9.7-7.2c3.5-11.2 4.5-12.2 15.7-15.7a10 10 0 0 0 7.2-9.7c0-4.4-2.9-8.3-7.2-9.7zM469.7 201a23.4 23.4 0 0 0-9.6-9.6c4.3-2.4 7.2-5.3 9.6-9.6 2.4 4.3 5.3 7.2 9.6 9.6a23.4 23.4 0 0 0-9.6 9.6z" class="st0"/>
  <path d="M62.3 364.7v50.6a29.3 29.3 0 0 0-21.9 16.9A29.5 29.5 0 0 0 0 459.5v13.4c0 4.1 3.4 7.5 7.5 7.5h497c4.1 0 7.5-3.4 7.5-7.5v-10.4c0-12.3-9-22.4-20.8-24.2V382c0-4.1-3.4-7.5-7.5-7.5s-7.5 3.4-7.5 7.5v52.1a24.5 24.5 0 0 0-25.1-7 24.4 24.4 0 0 0-44.3 8.2c-2.5-.4-5.2-.3-7.7.1a24.5 24.5 0 0 0-48.7 4.3v25.6h-30.7V308.9h156.5V342c0 4.1 3.4 7.5 7.5 7.5s7.5-3.4 7.5-7.5v-33.1h7.8c4.4 0 8-2.1 9.4-5.7s.5-7.5-2.7-10.7L390.9 178.4a21.1 21.1 0 0 0-13.8-5.7H159.3c-4.5 0-9.9 2.3-13.3 5.7l-38.2 38a7.5 7.5 0 0 0 0 10.6c2.9 2.9 7.7 3 10.6 0l39-38.8 7.5 7.5L68 292.6c-.6.6-2.4 1.3-3.2 1.3H51l42.3-42c2.9-2.9 3-7.7 0-10.6a7.5 7.5 0 0 0-10.6 0L31 292.6c-3.1 3.1-4.1 7.1-2.7 10.7 1.5 3.6 5 5.7 9.4 5.7h24.5v29.4m.1 127H15v-5.9c0-7.9 6.5-14.4 14.4-14.4 4 0 7.6 1.6 10.4 4.5a7.5 7.5 0 0 0 12.9-5.3c0-6.2 4-11.5 9.5-13.5v34.6zm423.5-171.5H285.6c-.8 0-2.6-.8-3.2-1.3l-17.1-17.2h201.9l18.6 18.5zm-63.4-63H395c-4.1 0-7.5 3.4-7.5 7.5s3.4 7.5 7.5 7.5h42.5l14.6 14.5H250.4l-14.5-14.5H353c4.1 0 7.5-3.4 7.5-7.5s-3.4-7.5-7.5-7.5H220.9l-14.5-14.5h201.3l14.7 14.5zM377 187.7c.8 0 2.7.8 3.3 1.3l12.4 12.3H191.5L178 187.7h199zM201.2 465.4h-54.3V332.8h54.3v132.6zM77.3 316.3v-9.8a7 7 0 0 1 1.3-3.2l96.8-96.8 96.4 96.8c3.4 3.4 9.1 5.8 13.8 5.8h19.1v156.5h-88.5V330.3c0-6.9-5.6-12.5-12.5-12.5h-59.3c-6.9 0-12.5 5.6-12.5 12.5v135.1H77.3v-78.7M497 465.4H365.4v-25.6a9.5 9.5 0 1 1 19 0v7.2c0 3 1.7 5.6 4.4 6.8 2.7 1.2 5.9.7 8.1-1.3a9.4 9.4 0 0 1 12.1-.4 7.5 7.5 0 1 0 12.1-5.9v-5.5a9.5 9.5 0 0 1 18.8-1.8 7.4 7.4 0 0 0 4.8 5.6c2.5.9 5.2.4 7.3-1.2a9.5 9.5 0 0 1 15.5 7.5c0 3.1 1.9 5.8 4.7 7 2.8 1.1 6.1.4 8.2-1.8a9.5 9.5 0 0 1 16.4 6.5v2.9z"/>
  <path d="M188.9 381.9a7.6 7.6 0 0 0-7.5 7.5v10.5c0 4.1 3.4 7.5 7.5 7.5s7.5-3.4 7.5-7.5v-10.5c0-4.2-3.3-7.5-7.5-7.5zm66.1-49.3h-19c-5.8 0-10.5 4.7-10.5 10.5v23c0 5.8 4.7 10.5 10.5 10.5h19c5.8 0 10.5-4.7 10.5-10.5v-23c0-5.8-4.7-10.5-10.5-10.5zm-4.5 29h-10v-14h10v14zm-136.5-29H95c-5.8 0-10.5 4.7-10.5 10.5v23c0 5.8 4.7 10.5 10.5 10.5h19c5.8 0 10.5-4.7 10.5-10.5v-23c0-5.8-4.8-10.5-10.5-10.5zm-4.5 29h-10v-14h10v14z"/>
  <path d="M389 31.6a51.6 51.6 0 1 0 .1 103.1 51.6 51.6 0 0 0-.1-103.1zm0 88a36.6 36.6 0 0 1 0-73 36.6 36.6 0 0 1 0 73z" class="st0"/>
</svg>
