<svg xmlns="http://www.w3.org/2000/svg" viewBox="0 0 512 512">
  <path d="M121.5 186.6A121.8 121.8 0 0 0 0 308c0 64 50 116.8 112.8 121.2V499c0 5.2 3.5 8.7 8.7 8.7s8.7-3.5 8.7-8.7v-69.8A121.9 121.9 0 0 0 243 308.1c0-66.9-54.7-121.5-121.5-121.5zm8.7 225.2V381l23.4-23.5a8.4 8.4 0 0 0 0-12.1 8.4 8.4 0 0 0-12.1 0l-20 20-20-20c-3.4-3.5-8.6-3.5-12.1 0s-3.5 8.7 0 12.1l23.4 23.5v30.8a104.5 104.5 0 0 1-95.4-103.7c0-57.3 46.8-104.2 104-104.2 57.4 0 104.2 46.9 104.2 104.2 0 54.3-42.2 99.3-95.4 103.7zm338.4-283.4c-3.5-37.3-29.5-50.3-53.8-50.3-33 0-51.2 20-57.3 28.6-20.8 2.6-36.4 21.7-36.4 44.3 0 24.3 19 44.3 41.6 44.3h100.7c17.4 0 31.2-14.8 31.2-33.9a33 33 0 0 0-26-33zm-5.2 49.5H362.7c-13.8 0-24.3-12.2-24.3-26.9 0-14.8 11.3-27 24.3-27a9 9 0 0 0 7.8-4.2c0-1.8 13-24.3 44.3-24.3 13 0 36.5 5.2 36.5 40.7 0 5.3 3.4 8.7 8.6 8.7h3.5c7.8 0 13.9 7 13.9 16.5 0 9.6-6 16.5-13.9 16.5zM86.8 481.6c-5.2 0-8.7 3.5-8.7 8.7v8.7c0 5.2 3.5 8.7 8.7 8.7s8.7-3.5 8.7-8.7v-8.7c0-5.2-3.5-8.7-8.7-8.7zm-34.8 0c-5.1 0-8.6 3.5-8.6 8.7v8.7c0 5.2 3.5 8.7 8.7 8.7s8.6-3.5 8.6-8.7v-8.7c0-5.2-3.4-8.7-8.6-8.7zm-34.6 0c-5.3 0-8.7 3.5-8.7 8.7v8.7c0 5.2 3.4 8.7 8.7 8.7 5.2 0 8.6-3.5 8.6-8.7v-8.7c0-5.2-3.4-8.7-8.6-8.7zm208.2 0c-5.2 0-8.7 3.5-8.7 8.7v8.7c0 5.2 3.5 8.7 8.7 8.7s8.7-3.5 8.7-8.7v-8.7c0-5.2-3.5-8.7-8.7-8.7zm-34.6 0c-5.3 0-8.8 3.5-8.8 8.7v8.7c0 5.2 3.5 8.7 8.7 8.7 5.2 0 8.7-3.5 8.7-8.7v-8.7c0-5.2-3.5-8.7-8.7-8.7zm-34.8 0c-5.2 0-8.7 3.5-8.7 8.7v8.7c0 5.2 3.5 8.7 8.7 8.7s8.7-3.5 8.7-8.7v-8.7c0-5.2-3.5-8.7-8.7-8.7zm347.1 0c-5.2 0-8.7 3.5-8.7 8.7v8.7c0 5.2 3.5 8.7 8.7 8.7 5.2 0 8.7-3.5 8.7-8.7v-8.7c0-5.2-3.5-8.7-8.7-8.7zm-34.7 0c-5.2 0-8.7 3.5-8.7 8.7v8.7c0 5.2 3.5 8.7 8.7 8.7s8.7-3.5 8.7-8.7v-8.7c0-5.2-3.5-8.7-8.7-8.7zm-208.3 0c-5.2 0-8.6 3.5-8.6 8.7v8.7c0 5.2 3.4 8.7 8.6 8.7s8.7-3.5 8.7-8.7v-8.7c0-5.2-3.5-8.7-8.7-8.7zm86.8 0c-5.2 0-8.7 3.5-8.7 8.7v8.7c0 5.2 3.5 8.7 8.7 8.7s8.7-3.5 8.7-8.7v-8.7c0-5.2-3.5-8.7-8.7-8.7zm34.7 0c-5.2 0-8.6 3.5-8.6 8.7v8.7c0 5.2 3.4 8.7 8.6 8.7s8.7-3.5 8.7-8.7v-8.7c0-5.2-3.5-8.7-8.7-8.7z"/>
  <path d="M460 464.3c5.1 0 8.6-3.5 9.5-8.7V440c0-19.7-16-36-35.6-36.5v-17.3h17.4c5.2 0 8.6-3.5 8.6-8.7 0-5.2-3.4-8.7-8.6-8.7h-17.4v-17.3h17.4c5.2 0 8.6-3.5 8.6-8.7s-3.4-8.7-8.6-8.7h-17.4v-8.7c0-5.2-3.5-8.7-8.7-8.7s-8.7 3.5-8.7 8.7v8.7h-104v-8.7c0-5.2-3.6-8.7-8.8-8.7s-8.6 3.5-8.6 8.7v8.7h-17.4c-5.2 0-8.7 3.5-8.7 8.7s3.5 8.7 8.7 8.7H295v17.3h-17.4c-5.2 0-8.7 3.5-8.7 8.7 0 5.2 3.5 8.7 8.7 8.7H295v17.4c-19.2.9-34.8 17-34.8 36.4v15.6c0 5.2 3.5 8.7 8.7 8.7h26V499c0 5.2 3.5 8.7 8.7 8.7s8.7-3.5 8.7-8.7v-34.7h104.1V499c0 5.2 3.5 8.7 8.7 8.7s8.7-3.5 8.7-8.7v-34.7h26zm-147.6-60.8v-17.3h104.1v17.3h-104zm104.1-52v17.3h-104v-17.3h104zM277.7 440c0-10.4 8.7-19.1 19-19.1h135.5c10.4 0 19 8.7 19 19v7H277.8v-7zM243 4.3a60.4 60.4 0 0 0-53 30.8 52 52 0 0 0-42.5-22c-5.2 0-8.7 3.4-8.7 8.6 0 5.2 3.5 8.7 8.7 8.7a34.8 34.8 0 0 1 34.7 34.7c0 5.2 3.5 8.7 8.7 8.7 5.2 0 8.7-3.5 8.7-8.7A43 43 0 0 1 243 21.7c5.2 0 8.7-3.5 8.7-8.7s-3.5-8.7-8.7-8.7z"/>
</svg>
